# xmcd
#
# Track frame offsets: 
#        150
#        12198
#        23598
#        35343
#        48045
#        59035
#        71755
#        84995
#        97730
#        109230
#        121723
#        134000
#        144365
#        156040
#        166543
#        175490
#        189118
#        201888
#        215010
#        231090
#
# Disc length: 3232 seconds
#
# Revision: 4
# Processed by: cddbd v1.5.1PL0 Copyright (c) Steve Scherf et al.
# Submitted via: ExactAudioCopy v0.90b3
#
DISCID=030c9e14
DTITLE=Ray Charles - How Long Blues
DYEAR=1993
DGENRE=R&B
TTITLE0=I Love You, I Love You
TTITLE1=Confession' Blues
TTITLE2=How Long Blues
TTITLE3=Blues Before Sunrise
TTITLE4=A Sentimental Blues
TTITLE5=You'll Never Miss The Water (Until The Well's Gone Dry)
TTITLE6=Alone In This City
TTITLE7=Can Anyone Ask For More
TTITLE8=Let's Have A Ball
TTITLE9=Rockin' Chair Blues
TTITLE10=I've Had My Fun (Goin' Down Slow)
TTITLE11=Sittin' On Top Of The World
TTITLE12=See See Rider
TTITLE13=I Wonder Who's Kissing Her Now
TTITLE14=All To Myself
TTITLE15=Baby Let Me Hold Your Hand
TTITLE16=Lonely Boy
TTITLE17=Baby Won't You Please Come Home
TTITLE18=Let Me Hear You Call My Name
TTITLE19=Guitar Blues
EXTD=Original Down Beat/Swingtime recordings, licensed from Charly Int
EXTD=ernational APS - Country of Origin UK
EXTT0=
EXTT1=
EXTT2=
EXTT3=
EXTT4=
EXTT5=
EXTT6=
EXTT7=
EXTT8=
EXTT9=
EXTT10=
EXTT11=
EXTT12=
EXTT13=
EXTT14=
EXTT15=
EXTT16=
EXTT17=
EXTT18=
EXTT19=
PLAYORDER=
